# File created by Blade
# Date/Time:  Thu Jan 22 15:33:09 2015
#---------------------------------------------------------
:version 1.10
:name HOM
:units
  mass 1.0
  length 1.000000
  angle deg
:documentation
     Acclaim Skeleton File
:root
   axis xyz
   order TX TY TZ RX RY RZ
   position 0.000000 0.000000 0.000000
   orientation 0 0 0
:bonedata
   begin
      id 1
      name RightUpLeg_dum
      direction -1.000000 0.000000 0.000000
      length 3.693983
      axis 0.0 0.0 0.0 xyz
   end
   begin
      id 2
      name LeftUpLeg_dum
      direction 1.000000 0.000000 0.000000
      length 3.693983
      axis 0.0 0.0 0.0 xyz
   end
   begin
      id 3
      name Spine_dum
      direction 0.000000 1.000000 0.000000
      length 2.392956
      axis 0.0 0.0 0.0 xyz
   end
   begin
      id 4
      name RightUpLeg
      direction 0.000000 -1.000000 0.000000
      length 15.795667
      axis 0.0 0.0 0.0 xyz
      dof rx ry rz
   end
   begin
      id 5
      name RightLeg
      direction 0.000000 -1.000000 0.000000
      length 14.766989
      axis 0.0 0.0 0.0 xyz
      dof rx ry rz
   end
   begin
      id 6
      name RightFoot
      direction 0.000000 -0.258819 0.965926
      length 4.962790
      axis 15.0 0.0 0.0 xyz
      dof rx ry rz
   end
   begin
      id 7
      name RightToeBase
      direction 0.000000 0.000000 1.000000
      length 2.952750
      axis 0.0 0.0 0.0 xyz
      dof rx ry rz
   end
   begin
      id 8
      name LeftUpLeg
      direction 0.000000 -1.000000 0.000000
      length 15.795667
      axis 0.0 0.0 0.0 xyz
      dof rx ry rz
   end
   begin
      id 9
      name LeftLeg
      direction 0.000000 -1.000000 0.000000
      length 14.766989
      axis 0.0 0.0 0.0 xyz
      dof rx ry rz
   end
   begin
      id 10
      name LeftFoot
      direction 0.000000 -0.258819 0.965926
      length 4.962790
      axis 15.0 0.0 0.0 xyz
      dof rx ry rz
   end
   begin
      id 11
      name LeftToeBase
      direction 0.000000 0.000000 1.000000
      length 2.952750
      axis 0.0 0.0 0.0 xyz
      dof rx ry rz
   end
   begin
      id 12
      name Spine
      direction 0.000000 1.000000 0.000000
      length 0.000000
      axis 0.0 0.0 0.0 xyz
      dof rx ry rz
   end
   begin
      id 13
      name Spine_dum1
      direction 0.000000 1.000000 0.000000
      length 13.207411
      axis 0.0 0.0 0.0 xyz
   end
   begin
      id 14
      name Spine_dum2
      direction 0.000000 1.000000 0.000000
      length 13.207411
      axis 0.0 0.0 0.0 xyz
   end
   begin
      id 15
      name Spine_dum3
      direction 0.000000 1.000000 0.000000
      length 19.250100
      axis 0.0 0.0 0.0 xyz
   end
   begin
      id 16
      name RightShoulder
      direction -1.000000 0.000000 0.000000
      length 8.140465
      axis 0.0 0.0 90.0 xyz
      dof rx ry rz
   end
   begin
      id 17
      name RightArm
      direction -1.000000 0.000000 0.000000
      length 10.649840
      axis 0.0 0.0 90.0 xyz
      dof rx ry rz
   end
   begin
      id 18
      name RightForeArm
      direction -1.000000 0.000000 0.000000
      length 8.304624
      axis 0.0 0.0 90.0 xyz
      dof ry rz rx
   end
   begin
      id 19
      name RightHand
      direction -1.000000 0.000000 0.000000
      length 0.000000
      axis 0.0 0.0 90.0 xyz
      dof rx ry rz
   end
   begin
      id 20
      name RightHand_dum1
      direction -1.000000 0.000000 0.000000
      length 3.937000
      axis 0.0 0.0 90.0 xyz
   end
   begin
      id 21
      name RightHand_dum2
      direction 0.000000 0.000000 0.000000
      length 0.000000
      axis 0.0 0.0 90.0 xyz
   end
   begin
      id 22
      name RightHandThumb1
      direction 0.000000 0.000000 1.000000
      length 3.937000
      axis 0.0 0.0 90.0 xyz
      dof rx rz ry
   end
   begin
      id 23
      name LeftShoulder
      direction 1.000000 0.000000 0.000000
      length 8.140465
      axis 0.0 0.0 -90.0 xyz
      dof rx ry rz
   end
   begin
      id 24
      name LeftArm
      direction 1.000000 0.000000 0.000000
      length 10.649840
      axis 0.0 0.0 -90.0 xyz
      dof rx ry rz
   end
   begin
      id 25
      name LeftForeArm
      direction 1.000000 0.000000 0.000000
      length 8.304624
      axis 0.0 0.0 -90.0 xyz
      dof ry rz rx
   end
   begin
      id 26
      name LeftHand
      direction 1.000000 0.000000 0.000000
      length 0.000000
      axis 0.0 0.0 -90.0 xyz
      dof rx ry rz
   end
   begin
      id 27
      name LeftHand_dum1
      direction 1.000000 0.000000 0.000000
      length 3.937000
      axis 0.0 0.0 -90.0 xyz
   end
   begin
      id 28
      name LeftHand_dum2
      direction 0.000000 0.000000 0.000000
      length 0.000000
      axis 0.0 0.0 -90.0 xyz
   end
   begin
      id 29
      name LeftHandThumb1
      direction 0.000000 0.000000 1.000000
      length 3.937000
      axis 0.0 0.0 -90.0 xyz
      dof rx rz ry
   end
   begin
      id 30
      name Head
      direction 0.000000 1.000000 0.000000
      length 4.527550
      axis 0.0 0.0 0.0 xyz
      dof rx ry rz
   end
:hierarchy
   begin
      root RightUpLeg_dum LeftUpLeg_dum Spine_dum
      RightUpLeg_dum RightUpLeg
      LeftUpLeg_dum LeftUpLeg
      Spine_dum Spine
      RightUpLeg RightLeg
      RightLeg RightFoot
      RightFoot RightToeBase
      LeftUpLeg LeftLeg
      LeftLeg LeftFoot
      LeftFoot LeftToeBase
      Spine Spine_dum1 Spine_dum2 Spine_dum3
      Spine_dum1 RightShoulder
      Spine_dum2 LeftShoulder
      Spine_dum3 Head
      RightShoulder RightArm
      RightArm RightForeArm
      RightForeArm RightHand
      RightHand RightHand_dum1 RightHand_dum2
      RightHand_dum2 RightHandThumb1
      LeftShoulder LeftArm
      LeftArm LeftForeArm
      LeftForeArm LeftHand
      LeftHand LeftHand_dum1 LeftHand_dum2
      LeftHand_dum2 LeftHandThumb1
   end

# File created by Blade
# Date/Time:  Thu Jan 22 15:33:01 2015
# Frame Rate: 120.000 fps
#------------------------------------------------------
:FULLY-SPECIFIED
:DEGREES
899
root 8.024533 20.720630 6.217984 30.812463 -76.317012 -184.662630
RightUpLeg -48.771919 -2.942400 4.868858
RightLeg 16.768353 -0.000000 -0.000000
RightFoot 31.755886 -14.604194 15.847763
RightToeBase 40.505712 -0.000000 -0.000000
LeftUpLeg -49.830219 -1.641516 -5.145335
LeftLeg 17.251065 -0.000000 -0.000000
LeftFoot 35.000465 -4.855147 -4.861168
LeftToeBase 35.181833 -0.000000 -0.000000
Spine -21.057987 6.121067 -0.275456
RightShoulder -26.207414 -52.268826 -10.867021
RightArm -23.887464 -61.819704 89.081397
RightForeArm 70.668381 -0.000000 109.445833
RightHand 7.558270 -0.000000 2.722904
RightHandThumb1 -24.326973 -0.000000 -32.862282
LeftShoulder 6.307516 50.303670 42.090132
LeftArm 6.748869 59.742432 -64.110892
LeftForeArm -31.992655 0.000000 107.359740
LeftHand -16.208839 -0.000000 -15.645170
LeftHandThumb1 -26.253704 0.000000 33.147579
Head 106.170784 -13.931644 -21.608760
900
root 8.045237 20.721180 6.204397 30.869347 -76.388474 -184.707001
RightUpLeg -48.696385 -2.935986 4.833323
RightLeg 16.875521 -0.000000 -0.000000
RightFoot 31.741091 -14.745652 16.051160
RightToeBase 40.652934 -0.000000 -0.000000
LeftUpLeg -49.716641 -1.682949 -5.114801
LeftLeg 17.203680 -0.000000 -0.000000
LeftFoot 35.023325 -4.953328 -4.764789
LeftToeBase 35.335332 -0.000000 -0.000000
Spine -21.122276 6.158081 -0.370094
RightShoulder -26.182906 -52.225942 -10.789591
RightArm -24.099442 -61.702396 89.241349
RightForeArm 70.609973 -0.000000 109.429889
RightHand 7.533344 0.000000 2.941469
RightHandThumb1 -24.326973 -0.000000 -32.862282
LeftShoulder 6.359287 50.199685 42.195374
LeftArm 6.675319 59.733289 -64.177243
LeftForeArm -31.826941 -0.000000 107.383418
LeftHand -16.186016 -0.000000 -15.706276
LeftHandThumb1 -26.253704 0.000000 33.147579
Head 106.217005 -13.908728 -21.598795
901
root 8.064537 20.721546 6.191040 31.003499 -76.453287 -184.839926
RightUpLeg -48.602638 -2.900038 4.789847
RightLeg 16.955323 -0.000000 -0.000000
RightFoot 31.804929 -14.753225 16.084812
RightToeBase 40.544957 -0.000000 -0.000000
LeftUpLeg -49.630838 -1.599708 -5.176151
LeftLeg 17.199219 -0.000000 -0.000000
LeftFoot 35.107763 -5.134859 -4.663629
LeftToeBase 35.490975 -0.000000 -0.000000
Spine -21.146369 6.176206 -0.416000
RightShoulder -26.196440 -52.148028 -10.688813
RightArm -24.258629 -61.600913 89.301846
RightForeArm 70.482059 -0.000000 109.411268
RightHand 7.483897 -0.000000 3.195076
RightHandThumb1 -24.326973 -0.000000 -32.862282
LeftShoulder 6.270068 50.138204 42.170673
LeftArm 6.652138 59.716178 -64.159093
LeftForeArm -31.607148 -0.000000 107.457883
LeftHand -16.197004 -0.000000 -15.744295
LeftHandThumb1 -26.253704 0.000000 33.147579
Head 106.232487 -13.874813 -21.595505
902
root 8.081243 20.721226 6.178131 31.078731 -76.495724 -184.882041
RightUpLeg -48.536793 -2.880885 4.737597
RightLeg 17.005087 -0.000000 -0.000000
RightFoot 31.782038 -14.777729 16.119105
RightToeBase 40.784610 -0.000000 -0.000000
LeftUpLeg -49.547354 -1.660080 -5.150482
LeftLeg 17.167577 -0.000000 -0.000000
LeftFoot 35.080802 -5.013383 -4.738734
LeftToeBase 35.621956 -0.000000 -0.000000
Spine -21.205052 6.173723 -0.476465
RightShoulder -26.191364 -52.075279 -10.599192
RightArm -24.419801 -61.465448 89.350916
RightForeArm 70.308806 0.000000 109.428420
RightHand 7.387339 0.000000 3.463897
RightHandThumb1 -24.326973 -0.000000 -32.862282
LeftShoulder 6.267454 50.111373 42.212374
LeftArm 6.654859 59.687231 -64.150045
LeftForeArm -31.455922 -0.000000 107.545856
LeftHand -16.262281 -0.000000 -15.703988
LeftHandThumb1 -26.253704 0.000000 33.147579
Head 106.253899 -13.853339 -21.579234
